o Button
v -3 0 1.05
v 3 0 1.05
v 2.9 0.7 0.9
v -2.9 0.7 0.9
v 2.7 0.8 0.7
v -2.7 0.8 0.7
v 0 0.8 0
v 3 0 -1.05
v 2.9 0.7 -0.9
v 2.7 0.8 -0.7
v -3 0 -1.05
v -2.9 0.7 -0.9
v -2.7 0.8 -0.7
vt 0 1
vt 1 1
vt 0.835 0.835
vt 0.165 0.835
vt 0.785 0.785
vt 0.215 0.785
vt 0.5 0.5
vt 1 0
vt 0.835 0.165
vt 0.785 0.215
vt 0 0
vt 0.165 0.165
vt 0.215 0.215
vn 0 0.209529088730874 0.97780241407741
vn 0 0.209529088730874 0.97780241407741
vn 0 0.894427190999916 0.447213595499958
vn 0 0.894427190999916 0.447213595499958
vn 0 1 0
vn 0.97780241407741 0.209529088730874 0
vn 0.97780241407741 0.209529088730874 0
vn 0.447213595499958 0.894427190999916 0
vn 0.447213595499958 0.894427190999916 0
vn 0 0.209529088730874 -0.97780241407741
vn 0 0.209529088730874 -0.97780241407741
vn 0 0.894427190999916 -0.447213595499958
vn 0 0.894427190999916 -0.447213595499958
vn -0.97780241407741 0.209529088730874 0
vn -0.97780241407741 0.209529088730874 0
vn -0.447213595499958 0.894427190999916 0
vn -0.447213595499958 0.894427190999916 0
g Button
f 1/1/1 2/2/1 3/3/2 4/4/2
f 4/4/3 3/3/3 5/5/4 6/6/4
f 6/6/5 5/5/5 7/7/5
f 2/2/6 8/8/6 9/9/7 3/3/7
f 3/3/8 9/9/8 10/10/9 5/5/9
f 5/5/5 10/10/5 7/7/5
f 8/8/10 11/11/10 12/12/11 9/9/11
f 9/9/12 12/12/12 13/13/13 10/10/13
f 10/10/5 13/13/5 7/7/5
f 11/11/14 1/1/14 4/4/15 12/12/15
f 12/12/16 4/4/16 6/6/17 13/13/17
f 13/13/5 6/6/5 7/7/5
#h 
